<svg viewBox="0 0 24 24">
  <path d="M 9 2 C 8 2 8 3 8 3 C 8 3 8 4 9 4 L 9 11.367188 L 5.0664062 18.251953 C 4.0256976 20.073194 3.9536462 21.252149 4.2929688 22.015625 C 4.6322912 22.779101 5.3789062 22.984375 5.3789062 22.984375 C 5.4184811 22.99451 5.4591487 22.999758 5.5 23 L 18.5 23 C 18.54085 22.999758 18.58152 22.994505 18.621094 22.984375 C 18.621094 22.984375 19.367709 22.779101 19.707031 22.015625 C 20.046354 21.252149 19.974303 20.073194 18.933594 18.251953 L 15 11.367188 L 15 4 C 15 4 16 4 16 3 C 16 2 15 2 15 2 L 14 2 L 14 11.5 C 14.000167 11.58705 14.023056 11.672554 14.066406 11.748047 L 18.066406 18.748047 C 19.025697 20.426806 18.953646 21.247851 18.792969 21.609375 C 18.638404 21.957128 18.412638 21.996396 18.394531 22 L 5.6054688 22 C 5.5873622 21.996396 5.3615882 21.957128 5.2070312 21.609375 C 5.0463539 21.247851 4.9743026 20.426806 5.9335938 18.748047 L 9.9335938 11.748047 C 9.9769428 11.672555 9.9998331 11.587053 10 11.5 L 10 2 L 9 2 z M 10 14.5 A 1 1 0 0 0 9 15.5 C 8.8181349 15.499985 8.6506005 15.598711 8.5625 15.757812 L 6.0625 20.257812 C 5.87805 20.591091 6.1190842 20.999989 6.5 21 L 17.5 21 C 17.880916 20.999989 18.12195 20.591091 17.9375 20.257812 L 15.4375 15.757812 C 15.3494 15.598712 15.181865 15.499985 15 15.5 L 14.365234 15.5 A 1 1 0 0 0 13.5 15 A 1 1 0 0 0 12.636719 15.5 L 12 15.5 L 11 15.5 A 1 1 0 0 0 10 14.5 z M 14 16 A 0.5 0.5 0 0 1 14.5 16.5 A 0.5 0.5 0 0 1 14 17 A 0.5 0.5 0 0 1 13.5 16.5 A 0.5 0.5 0 0 1 14 16 z M 10.5 16.5 A 0.5 0.5 0 0 1 11 17 A 0.5 0.5 0 0 1 10.5 17.5 A 0.5 0.5 0 0 1 10 17 A 0.5 0.5 0 0 1 10.5 16.5 z M 13 18 A 1 1 0 0 1 14 19 A 1 1 0 0 1 13 20 A 1 1 0 0 1 12 19 A 1 1 0 0 1 13 18 z " />
</svg>
